<svg width="7" height="12" viewBox="0 0 7 12" fill="none" xmlns="http://www.w3.org/2000/svg">
    <path d="M2.33289 6.59168C2.25478 6.51421 2.19279 6.42204 2.15048 6.32049C2.10817 6.21894 2.08639 6.11002 2.08639 6.00001C2.08639 5.89 2.10817 5.78108 2.15048 5.67953C2.19279 5.57798 2.25478 5.48581 2.33289 5.40834L6.15789 1.59168C6.236 1.51421 6.29799 1.42204 6.3403 1.32049C6.38261 1.21894 6.40439 1.11002 6.40439 1.00001C6.40439 0.889999 6.38261 0.781078 6.3403 0.679529C6.29799 0.577979 6.236 0.485812 6.15789 0.408343C6.00176 0.253134 5.79055 0.166016 5.57039 0.166016C5.35024 0.166016 5.13903 0.253134 4.98289 0.408343L1.15789 4.23334C0.689722 4.70209 0.426758 5.33751 0.426758 6.00001C0.426758 6.66251 0.689722 7.29792 1.15789 7.76668L4.98289 11.5917C5.13811 11.7456 5.34761 11.8324 5.56622 11.8333C5.6759 11.834 5.78462 11.813 5.88615 11.7715C5.98768 11.73 6.08002 11.6689 6.15789 11.5917C6.236 11.5142 6.29799 11.422 6.3403 11.3205C6.38261 11.2189 6.40439 11.11 6.40439 11C6.40439 10.89 6.38261 10.7811 6.3403 10.6795C6.29799 10.578 6.236 10.4858 6.15789 10.4083L2.33289 6.59168Z" fill="white"/>
</svg>
