<svg width="20" height="20" viewBox="0 0 20 20" fill="none" xmlns="http://www.w3.org/2000/svg">
    <g clip-path="url(#clip0_8305_25758)">
        <path d="M19.9831 1.68577V5.0191C19.9831 5.24011 19.8953 5.45208 19.739 5.60836C19.5828 5.76464 19.3708 5.85243 19.1498 5.85243C18.9288 5.85243 18.7168 5.76464 18.5605 5.60836C18.4042 5.45208 18.3164 5.24011 18.3164 5.0191V2.88327L13.8998 7.2766C13.7422 7.42801 13.5314 7.51146 13.3129 7.50897C13.0944 7.50648 12.8856 7.41825 12.7315 7.26328C12.5774 7.10831 12.4903 6.89901 12.4891 6.68048C12.4878 6.46194 12.5725 6.25166 12.7248 6.09493L17.1581 1.68577H14.9831C14.7621 1.68577 14.5501 1.59797 14.3939 1.44169C14.2376 1.28541 14.1498 1.07345 14.1498 0.852434C14.1498 0.63142 14.2376 0.419459 14.3939 0.263179C14.5501 0.106898 14.7621 0.0191009 14.9831 0.0191009H18.3164C18.7585 0.0191009 19.1824 0.194696 19.495 0.507256C19.8075 0.819817 19.9831 1.24374 19.9831 1.68577ZM19.2289 13.9683C19.7119 14.4525 19.9831 15.1085 19.9831 15.7924C19.9831 16.4763 19.7119 17.1323 19.2289 17.6166L18.4689 18.4916C11.6431 25.0233 -4.96439 8.42077 1.46895 1.57493L2.42645 0.741601C2.91152 0.272243 3.56173 0.012485 4.23668 0.0184097C4.91164 0.0243345 5.55718 0.295467 6.03395 0.773268C6.05895 0.799101 7.60311 2.80577 7.60311 2.80577C8.06117 3.28697 8.31623 3.92616 8.3153 4.59052C8.31437 5.25488 8.05752 5.89335 7.59811 6.37327L6.63228 7.58743C7.16632 8.88503 7.9515 10.0643 8.9427 11.0575C9.93391 12.0507 11.1116 12.8383 12.4081 13.3749L13.6289 12.4041C14.1088 11.9449 14.7471 11.6882 15.4113 11.6873C16.0754 11.6864 16.7144 11.9413 17.1956 12.3991C17.1956 12.3991 19.2031 13.9433 19.2289 13.9683ZM18.0831 15.1799C18.0831 15.1799 16.0889 13.6449 16.0631 13.6199C15.8914 13.4497 15.6595 13.3542 15.4177 13.3542C15.1759 13.3542 14.944 13.4497 14.7723 13.6199C14.7498 13.6416 13.0689 14.9816 13.0689 14.9816C12.9557 15.0718 12.8209 15.1309 12.6778 15.1531C12.5348 15.1753 12.3884 15.1598 12.2531 15.1083C10.5725 14.4833 9.04593 13.504 7.77715 12.237C6.50838 10.9699 5.52705 9.44474 4.89978 7.76493C4.8449 7.62837 4.82718 7.4797 4.8484 7.33406C4.86963 7.18842 4.92904 7.05099 5.02061 6.93577C5.02061 6.93577 6.35978 5.25493 6.38228 5.23243C6.5525 5.06076 6.64801 4.82878 6.64801 4.58702C6.64801 4.34525 6.5525 4.11328 6.38228 3.9416C6.35728 3.9166 4.82228 1.9216 4.82228 1.9216C4.64813 1.76525 4.42078 1.68142 4.18682 1.68731C3.95286 1.6932 3.73001 1.78835 3.56395 1.95327L2.60645 2.7866C-2.09689 8.43827 12.2973 22.0349 17.2498 17.3549L18.0098 16.4799C18.189 16.3155 18.2969 16.0876 18.3106 15.8448C18.3243 15.602 18.2427 15.3635 18.0831 15.1799Z" fill="white"/>
    </g>
    <defs>
        <clipPath id="clip0_8305_25758">
            <rect width="20" height="20" fill="white"/>
        </clipPath>
    </defs>
</svg>
