<svg width="18" height="19" viewBox="0 0 18 19" fill="none" xmlns="http://www.w3.org/2000/svg">
    <g clip-path="url(#clip0_12304_435)">
        <path d="M17.25 17H2.25C2.05109 17 1.86032 16.921 1.71967 16.7803C1.57902 16.6397 1.5 16.4489 1.5 16.25V1.25C1.5 1.05109 1.42098 0.860322 1.28033 0.71967C1.13968 0.579018 0.948912 0.5 0.75 0.5C0.551088 0.5 0.360322 0.579018 0.21967 0.71967C0.0790176 0.860322 0 1.05109 0 1.25L0 16.25C0 16.8467 0.237053 17.419 0.65901 17.841C1.08097 18.2629 1.65326 18.5 2.25 18.5H17.25C17.4489 18.5 17.6397 18.421 17.7803 18.2803C17.921 18.1397 18 17.9489 18 17.75C18 17.5511 17.921 17.3603 17.7803 17.2197C17.6397 17.079 17.4489 17 17.25 17Z" fill="white"/>
        <path d="M11.25 15.501C11.4489 15.501 11.6397 15.422 11.7803 15.2813C11.921 15.1407 12 14.9499 12 14.751V9.50098C12 9.30206 11.921 9.1113 11.7803 8.97065C11.6397 8.82999 11.4489 8.75098 11.25 8.75098C11.0511 8.75098 10.8603 8.82999 10.7197 8.97065C10.579 9.1113 10.5 9.30206 10.5 9.50098V14.751C10.5 14.9499 10.579 15.1407 10.7197 15.2813C10.8603 15.422 11.0511 15.501 11.25 15.501Z" fill="white"/>
        <path d="M5.25 15.501C5.44891 15.501 5.63968 15.422 5.78033 15.2813C5.92098 15.1407 6 14.9499 6 14.751V9.50098C6 9.30206 5.92098 9.1113 5.78033 8.97065C5.63968 8.82999 5.44891 8.75098 5.25 8.75098C5.05109 8.75098 4.86032 8.82999 4.71967 8.97065C4.57902 9.1113 4.5 9.30206 4.5 9.50098V14.751C4.5 14.9499 4.57902 15.1407 4.71967 15.2813C4.86032 15.422 5.05109 15.501 5.25 15.501Z" fill="white"/>
        <path d="M14.25 15.5C14.4489 15.5 14.6397 15.421 14.7803 15.2803C14.921 15.1397 15 14.9489 15 14.75V5.75C15 5.55109 14.921 5.36032 14.7803 5.21967C14.6397 5.07902 14.4489 5 14.25 5C14.0511 5 13.8603 5.07902 13.7197 5.21967C13.579 5.36032 13.5 5.55109 13.5 5.75V14.75C13.5 14.9489 13.579 15.1397 13.7197 15.2803C13.8603 15.421 14.0511 15.5 14.25 15.5Z" fill="white"/>
        <path d="M8.24988 15.5C8.4488 15.5 8.63956 15.421 8.78022 15.2803C8.92087 15.1397 8.99989 14.9489 8.99989 14.75V5.75C8.99989 5.55109 8.92087 5.36032 8.78022 5.21967C8.63956 5.07902 8.4488 5 8.24988 5C8.05097 5 7.8602 5.07902 7.71955 5.21967C7.5789 5.36032 7.49988 5.55109 7.49988 5.75V14.75C7.49988 14.9489 7.5789 15.1397 7.71955 15.2803C7.8602 15.421 8.05097 15.5 8.24988 15.5Z" fill="white"/>
    </g>
    <defs>
        <clipPath id="clip0_12304_435">
            <rect width="18" height="18" fill="white" transform="translate(0 0.5)"/>
        </clipPath>
    </defs>
</svg>
